# xmcd
#
# Track frame offsets:
# 150
# 36377
# 87241
# 160894
# 197274
# 232507
#
# Disc length: 3411 seconds
#
# Revision: 0
# Processed by: cddbd v1.5.2PL0 Copyright (c) Steve Scherf et al.
# Submitted via: Audion 3.0.2 (http://www.panic.com/audion/)
#
DISCID=390d5106
DTITLE=Joey Baron DHB Frankfurt 24.10.99 - Joey Baron DHB Frankfurt 24.10.99
DYEAR=1900
DGENRE=
TTITLE0=1
TTITLE1=2
TTITLE2=3
TTITLE3=4
TTITLE4=5
TTITLE5=6
EXTD=
EXTT0=
EXTT1=
EXTT2=
EXTT3=
EXTT4=
EXTT5=
PLAYORDER=
